<svg width="22" height="21" viewBox="0 0 22 21" fill="none" xmlns="http://www.w3.org/2000/svg">
<path d="M17.4074 11.908H17.4739C17.7844 10.9988 17.9618 10.0009 17.9618 8.98089C17.9618 4.03586 13.9481 0 8.98089 0C4.01368 0 0 4.03586 0 8.98089C0 13.9259 4.03586 17.9618 8.98089 17.9618C10.4223 17.9618 11.7528 17.6292 12.9724 17.0304C12.9502 16.8087 12.9281 16.5869 12.9281 16.3874C12.9281 13.9038 14.9238 11.908 17.4074 11.908ZM9.75702 13.4381V14.569C9.75702 14.6799 9.66832 14.7908 9.53527 14.7908H8.42652C8.31564 14.7908 8.20477 14.7021 8.20477 14.569V13.4603C7.09601 13.3937 6.18684 12.5289 6.07596 11.4201C6.05379 11.2871 6.16466 11.1762 6.29771 11.1762H7.40647C7.49517 11.1762 7.58387 11.2427 7.60604 11.3314C7.67257 11.6862 7.98302 11.9302 8.33782 11.9302H9.31352C9.89007 11.9302 10.4001 11.5088 10.4666 10.9323C10.5331 10.2892 10.0231 9.73485 9.38004 9.73485H8.67044C7.29559 9.73485 6.07596 8.73697 5.92074 7.36212C5.76551 5.92074 6.82991 4.67893 8.18259 4.50153V3.39278C8.18259 3.28191 8.27129 3.17103 8.40434 3.17103H9.51309C9.62397 3.17103 9.73485 3.25973 9.73485 3.39278V4.50153C10.8658 4.56806 11.7749 5.43289 11.8858 6.54164C11.8858 6.67469 11.7971 6.78556 11.6641 6.78556H10.5553C10.4666 6.78556 10.3557 6.71904 10.3557 6.63034C10.2892 6.27554 9.97877 6.03161 9.60179 6.03161H8.62609C8.04954 6.03161 7.51734 6.45294 7.47299 7.02949C7.40647 7.67257 7.91649 8.24912 8.55957 8.24912H9.40222C10.9323 8.24912 12.1741 9.57962 12.0189 11.1319C11.908 12.3293 10.9323 13.2385 9.75702 13.4381Z" fill="#C4CEFE"/>
<path opacity="0.5" d="M17.4069 12.7063C15.389 12.7063 13.748 14.3473 13.748 16.3652C13.748 18.3831 15.389 20.0241 17.4069 20.0241C19.4249 20.0241 21.0658 18.3831 21.0658 16.3652C21.0658 14.3473 19.4249 12.7063 17.4069 12.7063ZM18.9814 15.6778L17.3182 17.6513C17.2517 17.74 17.1408 17.7844 17.03 17.7844C16.9191 17.7844 16.8304 17.74 16.7417 17.6513L15.7882 16.5204C15.6551 16.3652 15.6773 16.1434 15.8325 16.0104C15.9877 15.8773 16.2095 15.8995 16.3425 16.0547L17.03 16.8752L18.427 15.2121C18.56 15.0569 18.7818 15.0347 18.937 15.1677C19.0922 15.3008 19.1144 15.5225 18.9814 15.6778Z" fill="#C4CEFE"/>
</svg>
