<svg width="19" height="14" viewBox="0 0 19 14" fill="none" xmlns="http://www.w3.org/2000/svg">
<path opacity="0.5" d="M18.3333 12.0312V13.1771C18.3333 13.329 18.273 13.4748 18.1655 13.5822C18.0581 13.6896 17.9124 13.75 17.7604 13.75H1.14583C0.841939 13.75 0.550492 13.6293 0.335607 13.4144C0.120721 13.1995 0 12.9081 0 12.6042V0.572917C0 0.42097 0.0603607 0.275246 0.167803 0.167803C0.275246 0.0603608 0.42097 0 0.572917 0H1.71875C1.8707 0 2.01642 0.0603608 2.12386 0.167803C2.23131 0.275246 2.29167 0.42097 2.29167 0.572917V11.4583H17.7604C17.9124 11.4583 18.0581 11.5187 18.1655 11.6261C18.273 11.7336 18.3333 11.8793 18.3333 12.0312Z" fill="#C4CEFE"/>
<path d="M17.1874 1.71867V5.94572C17.1874 6.71128 16.2618 7.09478 15.7193 6.55444L14.5592 5.39429L11.1217 8.83179C10.9068 9.04662 10.6154 9.16731 10.3115 9.16731C10.0077 9.16731 9.71626 9.04662 9.50138 8.83179L6.87491 6.20353L5.22563 7.85318C5.17243 7.90639 5.10926 7.9486 5.03975 7.9774C4.97023 8.0062 4.89572 8.02102 4.82047 8.02102C4.74522 8.02102 4.67071 8.0062 4.60119 7.9774C4.53168 7.9486 4.46851 7.90639 4.41531 7.85318L3.60535 7.04321C3.55214 6.99001 3.50992 6.92685 3.48112 6.85733C3.45232 6.78781 3.4375 6.7133 3.4375 6.63805C3.4375 6.56281 3.45232 6.4883 3.48112 6.41878C3.50992 6.34926 3.55214 6.2861 3.60535 6.23289L6.06495 3.77329C6.27983 3.55846 6.57124 3.43777 6.87509 3.43777C7.17894 3.43777 7.47035 3.55846 7.68523 3.77329L10.3124 6.40047L12.9396 3.77293L11.7805 2.61385C11.2391 2.07244 11.6226 1.14575 12.3892 1.14575H16.6145C16.7664 1.14575 16.9122 1.20611 17.0196 1.31356C17.127 1.421 17.1874 1.56672 17.1874 1.71867Z" fill="#C4CEFE"/>
</svg>
