<svg preserveAspectRatio="none" width="100%" height="100%" overflow="visible" style="display: block;" viewBox="0 0 13 14" fill="none" xmlns="http://www.w3.org/2000/svg">
<path id="Vector" d="M7.89838 14C9.68125 14 11.0616 13.8353 12.1689 13.4987C12.1454 13.3772 12.1297 13.2529 12.1297 13.125C12.1297 12.5535 12.3759 12.0376 12.7694 11.6667C12.3759 11.2957 12.1297 10.7798 12.1297 10.2083C12.1297 9.63685 12.3759 9.12096 12.7694 8.75C12.3759 8.37904 12.1297 7.86315 12.1297 7.29167C12.1297 6.72018 12.3759 6.2043 12.7694 5.83333C12.3759 5.46237 12.1297 4.94648 12.1297 4.375C12.1297 3.69991 12.475 3.10488 13 2.73301C12.6405 2.41536 12.2564 2.13069 11.8534 1.88019C12.0171 1.68118 12.1297 1.44041 12.1297 1.16667C12.1297 0.522266 11.5885 0 10.9207 0H4.87604C4.20829 0 3.66711 0.522266 3.66711 1.16667C3.66711 1.4398 3.77934 1.67982 3.94211 1.87852C1.59539 3.33746 0 5.97932 0 8.75C0 13.456 4.52485 14 7.89838 14V14ZM7.89193 8.33757C6.89188 8.33757 6.07852 7.55265 6.07852 6.58757C6.07852 5.82574 6.58854 5.18301 7.29392 4.94314V4.08333C7.29392 3.76098 7.56435 3.5 7.89838 3.5C8.23241 3.5 8.50285 3.76098 8.50285 4.08333V4.94709C9.20161 5.1903 9.70533 5.83045 9.70533 6.58757C9.70533 6.91007 9.4349 7.1709 9.10087 7.1709C8.76668 7.1709 8.4964 6.91007 8.4964 6.58757C8.4964 6.26567 8.22533 6.00423 7.89193 6.00423C7.55837 6.00423 7.28746 6.26567 7.28746 6.58757C7.28746 6.90946 7.55837 7.1709 7.89193 7.1709C8.89182 7.1709 9.70533 7.95597 9.70533 8.9209C9.70533 9.67802 9.20161 10.3182 8.50285 10.5615V11.0833C8.50285 11.4057 8.23241 11.6667 7.89838 11.6667C7.56435 11.6667 7.29392 11.4057 7.29392 11.0833V10.5653C6.58854 10.3256 6.07852 9.68273 6.07852 8.9209C6.07852 8.59855 6.3488 8.33757 6.68299 8.33757C7.01702 8.33757 7.28746 8.59855 7.28746 8.9209C7.28746 9.2428 7.55837 9.50423 7.89193 9.50423C8.22533 9.50423 8.4964 9.2428 8.4964 8.9209C8.4964 8.599 8.22533 8.33757 7.89193 8.33757Z" fill="var(--fill-0, white)"/>
</svg>
