<svg width="22" height="22" viewBox="0 0 22 22" fill="none" xmlns="http://www.w3.org/2000/svg">
<path d="M1.83398 15.9435C1.83398 16.7569 2.5183 17.4167 3.36176 17.4167H18.6395C19.483 17.4167 20.1673 16.7569 20.1673 15.9435V10.5417H1.83398V15.9435ZM7.9451 13.8565C7.9451 13.6539 8.11697 13.4882 8.32704 13.4882H12.6557C12.8658 13.4882 13.0377 13.6539 13.0377 13.8565V15.0842C13.0377 15.2867 12.8658 15.4525 12.6557 15.4525H8.32704C8.11697 15.4525 7.9451 15.2867 7.9451 15.0842V13.8565ZM3.87102 13.8565C3.87102 13.6539 4.0429 13.4882 4.25297 13.4882H6.54463C6.7547 13.4882 6.92658 13.6539 6.92658 13.8565V15.0842C6.92658 15.2867 6.7547 15.4525 6.54463 15.4525H4.25297C4.0429 15.4525 3.87102 15.2867 3.87102 15.0842V13.8565ZM20.1673 5.13996V6.61318H1.83398V5.13996C1.83398 4.32663 2.5183 3.66675 3.36176 3.66675H18.6395C19.483 3.66675 20.1673 4.32663 20.1673 5.13996Z" fill="#C4CEFE"/>
</svg>
