<svg width="17" height="17" viewBox="0 0 17 17" fill="none" xmlns="http://www.w3.org/2000/svg">
<g clip-path="url(#clip0_1886_1936)">
<path fill-rule="evenodd" clip-rule="evenodd" d="M3.57517 10.7129C3.57536 10.9468 3.5294 11.1785 3.43993 11.3947C3.35046 11.6109 3.21924 11.8073 3.05377 11.9727C2.8883 12.1381 2.69183 12.2693 2.47562 12.3587C2.2594 12.448 2.02768 12.4939 1.79371 12.4936C1.55987 12.4937 1.3283 12.4477 1.11225 12.3583C0.896195 12.2688 0.699896 12.1376 0.534576 11.9722C0.369256 11.8068 0.238158 11.6105 0.148777 11.3944C0.0593961 11.1783 0.0134862 10.9467 0.0136724 10.7129C0.0134861 10.479 0.0594194 10.2473 0.148845 10.0312C0.23827 9.81506 0.369431 9.61868 0.534827 9.45328C0.700222 9.28789 0.896604 9.15673 1.11274 9.0673C1.32887 8.97788 1.56052 8.93194 1.79442 8.93213H3.57588V10.7129H3.57517ZM4.46555 10.7129C4.46536 10.479 4.51129 10.2473 4.60072 10.0312C4.69014 9.81506 4.82131 9.61868 4.9867 9.45328C5.1521 9.28789 5.34848 9.15673 5.56461 9.0673C5.78075 8.97788 6.01239 8.93194 6.2463 8.93213C6.4802 8.93194 6.71185 8.97788 6.92798 9.0673C7.14412 9.15673 7.3405 9.28789 7.50589 9.45328C7.67129 9.61868 7.80245 9.81506 7.89188 10.0312C7.9813 10.2473 8.02723 10.479 8.02705 10.7129V15.1655C8.02723 15.3994 7.9813 15.631 7.89188 15.8471C7.80245 16.0633 7.67129 16.2597 7.50589 16.4251C7.3405 16.5905 7.14412 16.7216 6.92798 16.811C6.71185 16.9005 6.4802 16.9464 6.2463 16.9462C6.01239 16.9464 5.78075 16.9005 5.56461 16.811C5.34848 16.7216 5.1521 16.5905 4.9867 16.4251C4.82131 16.2597 4.69014 16.0633 4.60072 15.8471C4.51129 15.631 4.46536 15.3994 4.46555 15.1655V10.7129Z" fill="#E01E5A"/>
<path fill-rule="evenodd" clip-rule="evenodd" d="M6.24679 3.56221C6.01283 3.5624 5.78113 3.51644 5.56494 3.42697C5.34876 3.3375 5.15235 3.20627 4.98695 3.0408C4.82154 2.87533 4.69039 2.67887 4.60101 2.46265C4.51163 2.24644 4.46576 2.01471 4.46604 1.78075C4.46586 1.54685 4.51179 1.3152 4.60121 1.09907C4.69064 0.882932 4.8218 0.68655 4.9872 0.521155C5.15259 0.35576 5.34897 0.224598 5.56511 0.135173C5.78124 0.0457476 6.01289 -0.000185739 6.24679 5.64461e-07C6.4807 -0.000185739 6.71234 0.0457476 6.92848 0.135173C7.14461 0.224598 7.34099 0.35576 7.50639 0.521155C7.67178 0.68655 7.80295 0.882932 7.89237 1.09907C7.9818 1.3152 8.02773 1.54685 8.02754 1.78075V3.56292H6.2475L6.24679 3.56221ZM6.24679 4.46604C6.4807 4.46586 6.71234 4.51179 6.92848 4.60121C7.14461 4.69064 7.34099 4.8218 7.50639 4.9872C7.67178 5.15259 7.80295 5.34897 7.89237 5.56511C7.9818 5.78124 8.02773 6.01289 8.02754 6.24679C8.02773 6.4807 7.9818 6.71234 7.89237 6.92848C7.80295 7.14461 7.67178 7.34099 7.50639 7.50639C7.34099 7.67178 7.14461 7.80295 6.92848 7.89237C6.71234 7.9818 6.4807 8.02773 6.24679 8.02754H1.78075C1.54691 8.02773 1.31532 7.98182 1.09923 7.89244C0.883142 7.80306 0.686791 7.67196 0.521405 7.50664C0.35602 7.34132 0.224843 7.14502 0.135376 6.92897C0.0459094 6.71291 -9.26005e-05 6.48134 5.64461e-07 6.2475C-0.000185739 6.0136 0.0457476 5.78195 0.135173 5.56582C0.224598 5.34968 0.35576 5.1533 0.521155 4.9879C0.68655 4.82251 0.882932 4.69135 1.09907 4.60192C1.3152 4.5125 1.54685 4.46656 1.78075 4.46675H6.2475L6.24679 4.46604Z" fill="#36C5F0"/>
<path fill-rule="evenodd" clip-rule="evenodd" d="M13.3842 6.24679C13.384 6.01283 13.43 5.78113 13.5195 5.56495C13.6089 5.34876 13.7402 5.15235 13.9056 4.98695C14.0711 4.82154 14.2676 4.69039 14.4838 4.60101C14.7 4.51163 14.9317 4.46576 15.1657 4.46604C15.3996 4.46586 15.6312 4.51179 15.8474 4.60121C16.0635 4.69064 16.2599 4.8218 16.4253 4.9872C16.5907 5.15259 16.7218 5.34897 16.8113 5.56511C16.9007 5.78124 16.9466 6.01289 16.9464 6.24679C16.9466 6.4807 16.9007 6.71234 16.8113 6.92848C16.7218 7.14461 16.5907 7.34099 16.4253 7.50639C16.2599 7.67178 16.0635 7.80295 15.8474 7.89237C15.6312 7.9818 15.3996 8.02773 15.1657 8.02754H13.3842V6.2475V6.24679ZM12.4938 6.24679C12.494 6.4807 12.4481 6.71234 12.3587 6.92848C12.2693 7.14461 12.1381 7.34099 11.9727 7.50639C11.8073 7.67178 11.6109 7.80295 11.3948 7.89237C11.1786 7.9818 10.947 8.02773 10.7131 8.02754C10.4791 8.02782 10.2474 7.98196 10.0312 7.89257C9.81498 7.80319 9.61852 7.67204 9.45305 7.50664C9.28758 7.34124 9.15635 7.14482 9.06688 6.92864C8.97741 6.71246 8.93145 6.48076 8.93164 6.24679V1.78075C8.93145 1.54679 8.97741 1.31508 9.06688 1.0989C9.15635 0.882723 9.28758 0.686309 9.45305 0.520904C9.61852 0.3555 9.81498 0.224353 10.0312 0.13497C10.2474 0.0455863 10.4791 -0.00027822 10.7131 1.2697e-06C10.947 -0.000185034 11.1786 0.0457483 11.3948 0.135173C11.6109 0.224598 11.8073 0.35576 11.9727 0.521155C12.1381 0.68655 12.2693 0.882933 12.3587 1.09907C12.4481 1.3152 12.494 1.54685 12.4938 1.78075V6.2475V6.24679Z" fill="#2EB67D"/>
<path fill-rule="evenodd" clip-rule="evenodd" d="M10.7124 13.384C10.9463 13.3838 11.1779 13.4298 11.3941 13.5192C11.6102 13.6086 11.8066 13.7398 11.972 13.9052C12.1374 14.0706 12.2685 14.2669 12.358 14.4831C12.4474 14.6992 12.4933 14.9309 12.4931 15.1648C12.4934 15.3987 12.4476 15.6304 12.3582 15.8467C12.2688 16.0629 12.1376 16.2593 11.9722 16.4248C11.8068 16.5903 11.6104 16.7215 11.3942 16.811C11.1781 16.9004 10.9464 16.9464 10.7124 16.9462C10.4784 16.9464 10.2467 16.9004 10.0305 16.811C9.81436 16.7215 9.61795 16.5903 9.45255 16.4248C9.28714 16.2593 9.15599 16.0629 9.06661 15.8467C8.97723 15.6304 8.93136 15.3987 8.93164 15.1648V13.384H10.7124ZM10.7124 12.4936C10.4785 12.4938 10.2468 12.4479 10.0307 12.3585C9.81457 12.269 9.61819 12.1379 9.4528 11.9725C9.2874 11.8071 9.15624 11.6107 9.06681 11.3946C8.97739 11.1784 8.93146 10.9468 8.93164 10.7129C8.93146 10.479 8.97739 10.2473 9.06681 10.0312C9.15624 9.81506 9.2874 9.61868 9.4528 9.45328C9.61819 9.28789 9.81457 9.15673 10.0307 9.0673C10.2468 8.97788 10.4785 8.93194 10.7124 8.93213H15.1784C15.4123 8.93194 15.644 8.97788 15.8601 9.0673C16.0763 9.15673 16.2726 9.28789 16.438 9.45328C16.6034 9.61868 16.7346 9.81506 16.824 10.0312C16.9134 10.2473 16.9594 10.479 16.9592 10.7129C16.9594 10.9468 16.9134 11.1784 16.824 11.3946C16.7346 11.6107 16.6034 11.8071 16.438 11.9725C16.2726 12.1379 16.0763 12.269 15.8601 12.3585C15.644 12.4479 15.4123 12.4938 15.1784 12.4936H10.7124Z" fill="#ECB22E"/>
</g>
<defs>
<clipPath id="clip0_1886_1936">
<rect width="17" height="17" fill="white"/>
</clipPath>
</defs>
</svg>
